<svg width="265" height="244" viewBox="0 0 265 244" fill="none" xmlns="http://www.w3.org/2000/svg">
<circle cx="9.06523" cy="49.1285" r="8.82402" transform="rotate(-90 9.06523 49.1285)" fill="#3772FF"/>
<circle cx="79.658" cy="49.129" r="8.82402" transform="rotate(-90 79.658 49.129)" fill="#3772FF"/>
<circle cx="44.3616" cy="22.6566" r="8.82402" transform="rotate(-90 44.3616 22.6566)" fill="#3772FF"/>
<circle cx="44.3616" cy="75.6007" r="8.82402" transform="rotate(-90 44.3616 75.6007)" fill="#3772FF"/>
<circle cx="79.6575" cy="-3.81548" r="8.82402" transform="rotate(-90 79.6575 -3.81548)" fill="#3772FF"/>
<circle cx="79.6575" cy="102.073" r="8.82402" transform="rotate(-90 79.6575 102.073)" fill="#3772FF"/>
<circle cx="114.953" cy="75.6005" r="8.82402" transform="rotate(-90 114.953 75.6005)" fill="#3772FF"/>
<circle cx="150.25" cy="49.1286" r="8.82402" transform="rotate(-90 150.25 49.1286)" fill="#3772FF"/>
<circle cx="150.25" cy="-3.81572" r="8.82402" transform="rotate(-90 150.25 -3.81572)" fill="#3772FF"/>
<circle cx="150.25" cy="102.073" r="8.82402" transform="rotate(-90 150.25 102.073)" fill="#3772FF"/>
<circle cx="150.25" cy="155.017" r="8.82402" transform="rotate(-90 150.25 155.017)" fill="#3772FF"/>
<circle cx="185.546" cy="128.545" r="8.82402" transform="rotate(-90 185.546 128.545)" fill="#3772FF"/>
<circle cx="185.546" cy="75.6004" r="8.82402" transform="rotate(-90 185.546 75.6004)" fill="#3772FF"/>
<circle cx="185.546" cy="22.6567" r="8.82402" transform="rotate(-90 185.546 22.6567)" fill="#3772FF"/>
<circle cx="185.547" cy="181.489" r="8.82402" transform="rotate(-90 185.547 181.489)" fill="#3772FF"/>
<circle cx="220.842" cy="155.017" r="8.82402" transform="rotate(-90 220.842 155.017)" fill="#3772FF"/>
<circle cx="220.842" cy="102.073" r="8.82402" transform="rotate(-90 220.842 102.073)" fill="#3772FF"/>
<circle cx="220.842" cy="49.1285" r="8.82402" transform="rotate(-90 220.842 49.1285)" fill="#3772FF"/>
<circle cx="220.843" cy="-3.81523" r="8.82402" transform="rotate(-90 220.843 -3.81523)" fill="#3772FF"/>
<circle cx="220.842" cy="207.961" r="8.82402" transform="rotate(-90 220.842 207.961)" fill="#3772FF"/>
<circle cx="256.138" cy="181.489" r="8.82402" transform="rotate(-90 256.138 181.489)" fill="#3772FF"/>
<circle cx="256.138" cy="128.545" r="8.82402" transform="rotate(-90 256.138 128.545)" fill="#3772FF"/>
<circle cx="256.138" cy="75.6008" r="8.82402" transform="rotate(-90 256.138 75.6008)" fill="#3772FF"/>
<circle cx="256.138" cy="22.6564" r="8.82402" transform="rotate(-90 256.138 22.6564)" fill="#3772FF"/>
<circle cx="256.138" cy="234.433" r="8.82402" transform="rotate(-90 256.138 234.433)" fill="#3772FF"/>
<circle cx="114.954" cy="128.545" r="8.82402" transform="rotate(-90 114.954 128.545)" fill="#3772FF"/>
<circle cx="114.954" cy="22.6568" r="8.82402" transform="rotate(-90 114.954 22.6568)" fill="#3772FF"/>
</svg>
