<svg width="463" height="362" viewBox="0 0 463 362" fill="none" xmlns="http://www.w3.org/2000/svg">
<circle cx="132.947" cy="333.27" r="11.2772" transform="rotate(-120 132.947 333.27)" fill="white"/>
<circle cx="76.9651" cy="326.525" r="11.2772" transform="rotate(-120 76.9651 326.525)" fill="white"/>
<circle cx="99.1145" cy="274.672" r="11.2772" transform="rotate(-120 99.1145 274.672)" fill="white"/>
<circle cx="188.927" cy="340.014" r="11.2772" transform="rotate(-120 188.927 340.014)" fill="white"/>
<circle cx="211.077" cy="288.161" r="11.2772" transform="rotate(-120 211.077 288.161)" fill="white"/>
<circle cx="177.245" cy="229.563" r="11.2772" transform="rotate(-120 177.245 229.563)" fill="white"/>
<circle cx="244.909" cy="346.759" r="11.2772" transform="rotate(-120 244.909 346.759)" fill="white"/>
<circle cx="300.889" cy="353.504" r="11.2772" transform="rotate(-120 300.889 353.504)" fill="white"/>
<circle cx="267.057" cy="294.906" r="11.2772" transform="rotate(-120 267.057 294.906)" fill="white"/>
<circle cx="233.227" cy="236.308" r="11.2772" transform="rotate(-120 233.227 236.308)" fill="white"/>
<circle cx="199.395" cy="177.71" r="11.2772" transform="rotate(-120 199.395 177.71)" fill="white"/>
<circle cx="165.564" cy="119.112" r="11.2772" transform="rotate(-120 165.564 119.112)" fill="white"/>
<circle cx="356.87" cy="360.248" r="11.2772" transform="rotate(-120 356.87 360.248)" fill="white"/>
<circle cx="323.039" cy="301.65" r="11.2772" transform="rotate(-120 323.039 301.65)" fill="white"/>
<circle cx="289.207" cy="243.052" r="11.2772" transform="rotate(-120 289.207 243.052)" fill="white"/>
<circle cx="255.376" cy="184.455" r="11.2772" transform="rotate(-120 255.376 184.455)" fill="white"/>
<circle cx="221.544" cy="125.857" r="11.2772" transform="rotate(-120 221.544 125.857)" fill="white"/>
<circle cx="187.712" cy="67.2586" r="11.2772" transform="rotate(-120 187.712 67.2586)" fill="white"/>
<circle cx="412.852" cy="366.993" r="11.2772" transform="rotate(-120 412.852 366.993)" fill="white"/>
<circle cx="379.019" cy="308.395" r="11.2772" transform="rotate(-120 379.019 308.395)" fill="white"/>
<circle cx="345.189" cy="249.797" r="11.2772" transform="rotate(-120 345.189 249.797)" fill="white"/>
<circle cx="311.357" cy="191.199" r="11.2772" transform="rotate(-120 311.357 191.199)" fill="white"/>
<circle cx="277.526" cy="132.601" r="11.2772" transform="rotate(-120 277.526 132.601)" fill="white"/>
<circle cx="243.694" cy="74.0034" r="11.2772" transform="rotate(-120 243.694 74.0034)" fill="white"/>
<circle cx="209.862" cy="15.4054" r="11.2772" transform="rotate(-120 209.862 15.4054)" fill="white"/>
<circle cx="143.414" cy="170.965" r="11.2772" transform="rotate(-120 143.414 170.965)" fill="white"/>
<circle cx="121.264" cy="222.819" r="11.2772" transform="rotate(-120 121.264 222.819)" fill="white"/>
<circle cx="155.096" cy="281.416" r="11.2772" transform="rotate(-120 155.096 281.416)" fill="white"/>
</svg>
